<svg xmlns="http://www.w3.org/2000/svg" xmlns:xlink="http://www.w3.org/1999/xlink" width="500" zoomAndPan="magnify" viewBox="0 0 375 74.999997" height="100" preserveAspectRatio="xMidYMid meet" version="1.0"><defs><g/><clipPath id="278a070065"><path d="M 93 0.121094 L 100 0.121094 L 100 8 L 93 8 Z M 93 0.121094 " clip-rule="nonzero"/></clipPath><clipPath id="bfad04d7dd"><rect x="0" width="207" y="0" height="11"/></clipPath><clipPath id="55318fdd0e"><rect x="0" width="274" y="0" height="35"/></clipPath><clipPath id="40f0086827"><path d="M 0 7.5 L 54.75 7.5 L 54.75 70.5 L 0 70.5 Z M 0 7.5 " clip-rule="nonzero"/></clipPath><clipPath id="38235b049a"><path d="M 36.269531 7.5 L 91.019531 7.5 L 91.019531 70.5 L 36.269531 70.5 Z M 36.269531 7.5 " clip-rule="nonzero"/></clipPath></defs><g transform="matrix(1, 0, 0, 1, 103, 51)"><g clip-path="url(#bfad04d7dd)"><g fill="#01b695" fill-opacity="1"><g transform="translate(0.647436, 7.223498)"><g><path d="M 5.53125 -3.265625 L 4.359375 -1.171875 L 3.1875 -1.171875 L 2.015625 -3.265625 L 2.015625 0 L 0.5 0 L 0.5 -5.859375 L 2.09375 -5.859375 L 3.765625 -2.765625 L 5.4375 -5.859375 L 7.03125 -5.859375 L 7.03125 0 L 5.53125 0 Z M 5.53125 -3.265625 "/></g></g></g><g fill="#01b695" fill-opacity="1"><g transform="translate(12.667593, 7.223498)"><g><path d="M 1.546875 0 L -0.078125 0 L 2.140625 -5.859375 L 3.8125 -5.859375 L 6.03125 0 L 4.390625 0 L 4.015625 -1.046875 L 1.921875 -1.046875 Z M 2.296875 -2.140625 L 3.640625 -2.140625 L 2.96875 -4.109375 Z M 2.296875 -2.140625 "/></g></g></g><g fill="#01b695" fill-opacity="1"><g transform="translate(23.095119, 7.223498)"><g><path d="M 0.5 -5.859375 L 4.015625 -5.859375 C 4.609375 -5.859375 5.035156 -5.722656 5.296875 -5.453125 C 5.554688 -5.191406 5.6875 -4.769531 5.6875 -4.1875 L 5.6875 -3.4375 C 5.6875 -2.96875 5.609375 -2.601562 5.453125 -2.34375 C 5.304688 -2.09375 5.066406 -1.925781 4.734375 -1.84375 L 5.78125 0 L 4.140625 0 L 3.1875 -1.765625 L 2.015625 -1.765625 L 2.015625 0 L 0.5 0 Z M 4.1875 -4.1875 C 4.1875 -4.519531 4.019531 -4.6875 3.6875 -4.6875 L 2.015625 -4.6875 L 2.015625 -2.9375 L 3.6875 -2.9375 C 4.019531 -2.9375 4.1875 -3.101562 4.1875 -3.4375 Z M 4.1875 -4.1875 "/></g></g></g><g fill="#01b695" fill-opacity="1"><g transform="translate(33.606463, 7.223498)"><g><path d="M 2.015625 0 L 0.5 0 L 0.5 -5.859375 L 2.015625 -5.859375 L 2.015625 -3.5625 L 2.765625 -3.5625 L 4.0625 -5.859375 L 5.65625 -5.859375 L 4.015625 -2.96875 L 5.65625 0 L 4.0625 0 L 2.765625 -2.390625 L 2.015625 -2.390625 Z M 2.015625 0 "/></g></g></g><g fill="#01b695" fill-opacity="1"><g transform="translate(43.748989, 7.223498)"><g><path d="M 5.15625 0 L 0.5 0 L 0.5 -5.859375 L 5.15625 -5.859375 L 5.15625 -4.6875 L 2.015625 -4.6875 L 2.015625 -3.5625 L 4.484375 -3.5625 L 4.484375 -2.390625 L 2.015625 -2.390625 L 2.015625 -1.171875 L 5.15625 -1.171875 Z M 5.15625 0 "/></g></g></g><g fill="#01b695" fill-opacity="1"><g transform="translate(53.547842, 7.223498)"><g><path d="M 3.34375 0 L 1.84375 0 L 1.84375 -4.6875 L 0.078125 -4.6875 L 0.078125 -5.859375 L 5.109375 -5.859375 L 5.109375 -4.6875 L 3.34375 -4.6875 Z M 3.34375 0 "/></g></g></g><g fill="#01b695" fill-opacity="1"><g transform="translate(63.220955, 7.223498)"><g><path d="M 3.265625 0 L 0.25 0 L 0.25 -1.171875 L 1 -1.171875 L 1 -4.6875 L 0.25 -4.6875 L 0.25 -5.859375 L 3.265625 -5.859375 L 3.265625 -4.6875 L 2.515625 -4.6875 L 2.515625 -1.171875 L 3.265625 -1.171875 Z M 3.265625 0 "/></g></g></g><g fill="#01b695" fill-opacity="1"><g transform="translate(71.217617, 7.223498)"><g><path d="M 5.609375 0 L 4.015625 0 L 2.015625 -3.515625 L 2.015625 0 L 0.5 0 L 0.5 -5.859375 L 2.09375 -5.859375 L 4.109375 -2.34375 L 4.109375 -5.859375 L 5.609375 -5.859375 Z M 5.609375 0 "/></g></g></g><g fill="#01b695" fill-opacity="1"><g transform="translate(81.81278, 7.223498)"><g><path d="M 5.53125 -0.125 C 4.21875 0.0078125 3.015625 0.078125 1.921875 0.078125 C 1.378906 0.078125 0.976562 -0.046875 0.71875 -0.296875 C 0.457031 -0.554688 0.328125 -0.957031 0.328125 -1.5 L 0.328125 -4.1875 C 0.328125 -4.769531 0.457031 -5.191406 0.71875 -5.453125 C 0.988281 -5.722656 1.421875 -5.859375 2.015625 -5.859375 L 5.03125 -5.859375 L 5.03125 -4.6875 L 2.34375 -4.6875 C 2.007812 -4.6875 1.84375 -4.519531 1.84375 -4.1875 L 1.84375 -1.5 C 1.84375 -1.375 1.878906 -1.273438 1.953125 -1.203125 C 2.023438 -1.128906 2.128906 -1.09375 2.265625 -1.09375 C 2.898438 -1.09375 3.484375 -1.101562 4.015625 -1.125 L 4.015625 -2.34375 L 2.9375 -2.34375 L 2.9375 -3.34375 L 5.53125 -3.34375 Z M 5.53125 -0.125 "/></g></g></g><g clip-path="url(#278a070065)"><g fill="#01b695" fill-opacity="1"><g transform="translate(92.156476, 7.223498)"><g><path d="M 2.320312 -1.609375 C 2.320312 -2.144531 2.75 -2.523438 3.277344 -2.875 C 3.761719 -2.273438 4.402344 -1.683594 5.011719 -1.140625 C 4.617188 -0.746094 4.164062 -0.511719 3.679688 -0.511719 C 2.882812 -0.511719 2.320312 -0.914062 2.320312 -1.609375 Z M 3.042969 -4.8125 C 3.042969 -5.363281 3.371094 -5.714844 3.882812 -5.714844 C 4.316406 -5.714844 4.578125 -5.382812 4.578125 -4.988281 C 4.578125 -4.417969 4.082031 -4.039062 3.496094 -3.671875 C 3.21875 -4.074219 3.042969 -4.460938 3.042969 -4.8125 Z M 6.992188 -0.511719 C 6.765625 -0.652344 6.371094 -0.90625 5.941406 -1.25 C 6.378906 -1.859375 6.671875 -2.53125 6.839844 -3.3125 L 6.136719 -3.3125 C 6.027344 -2.65625 5.800781 -2.128906 5.457031 -1.660156 C 4.902344 -2.144531 4.300781 -2.691406 3.832031 -3.234375 C 4.527344 -3.6875 5.1875 -4.183594 5.1875 -5.011719 C 5.1875 -5.757812 4.667969 -6.261719 3.863281 -6.261719 C 3.019531 -6.261719 2.40625 -5.683594 2.40625 -4.777344 C 2.40625 -4.300781 2.605469 -3.8125 2.933594 -3.335938 C 2.253906 -2.910156 1.617188 -2.414062 1.617188 -1.574219 C 1.617188 -0.5625 2.398438 0.101562 3.621094 0.101562 C 4.425781 0.101562 5.011719 -0.210938 5.5 -0.703125 C 5.960938 -0.320312 6.3125 -0.0820312 6.628906 0.109375 Z M 6.992188 -0.511719 "/></g></g></g></g><g fill="#01b695" fill-opacity="1"><g transform="translate(105.014864, 7.223498)"><g><path d="M 3.34375 0 L 1.84375 0 L 1.84375 -4.6875 L 0.078125 -4.6875 L 0.078125 -5.859375 L 5.109375 -5.859375 L 5.109375 -4.6875 L 3.34375 -4.6875 Z M 3.34375 0 "/></g></g></g><g fill="#01b695" fill-opacity="1"><g transform="translate(114.687977, 7.223498)"><g><path d="M 5.15625 0 L 0.5 0 L 0.5 -5.859375 L 5.15625 -5.859375 L 5.15625 -4.6875 L 2.015625 -4.6875 L 2.015625 -3.5625 L 4.484375 -3.5625 L 4.484375 -2.390625 L 2.015625 -2.390625 L 2.015625 -1.171875 L 5.15625 -1.171875 Z M 5.15625 0 "/></g></g></g><g fill="#01b695" fill-opacity="1"><g transform="translate(124.48683, 7.223498)"><g><path d="M 5.03125 -0.078125 C 3.78125 0.0234375 2.742188 0.078125 1.921875 0.078125 C 1.378906 0.078125 0.976562 -0.046875 0.71875 -0.296875 C 0.457031 -0.554688 0.328125 -0.957031 0.328125 -1.5 L 0.328125 -4.1875 C 0.328125 -4.769531 0.457031 -5.191406 0.71875 -5.453125 C 0.988281 -5.722656 1.421875 -5.859375 2.015625 -5.859375 L 5.03125 -5.859375 L 5.03125 -4.6875 L 2.34375 -4.6875 C 2.007812 -4.6875 1.84375 -4.519531 1.84375 -4.1875 L 1.84375 -1.5 C 1.84375 -1.375 1.878906 -1.273438 1.953125 -1.203125 C 2.023438 -1.128906 2.117188 -1.09375 2.234375 -1.09375 C 2.359375 -1.09375 2.488281 -1.09375 2.625 -1.09375 C 2.769531 -1.09375 2.914062 -1.09375 3.0625 -1.09375 C 3.21875 -1.101562 3.367188 -1.109375 3.515625 -1.109375 C 3.671875 -1.117188 3.867188 -1.132812 4.109375 -1.15625 C 4.359375 -1.175781 4.664062 -1.195312 5.03125 -1.21875 Z M 5.03125 -0.078125 "/></g></g></g><g fill="#01b695" fill-opacity="1"><g transform="translate(134.159943, 7.223498)"><g><path d="M 5.609375 0 L 4.109375 0 L 4.109375 -2.390625 L 2.015625 -2.390625 L 2.015625 0 L 0.5 0 L 0.5 -5.859375 L 2.015625 -5.859375 L 2.015625 -3.5625 L 4.109375 -3.5625 L 4.109375 -5.859375 L 5.609375 -5.859375 Z M 5.609375 0 "/></g></g></g><g fill="#01b695" fill-opacity="1"><g transform="translate(144.755106, 7.223498)"><g><path d="M 5.609375 0 L 4.015625 0 L 2.015625 -3.515625 L 2.015625 0 L 0.5 0 L 0.5 -5.859375 L 2.09375 -5.859375 L 4.109375 -2.34375 L 4.109375 -5.859375 L 5.609375 -5.859375 Z M 5.609375 0 "/></g></g></g><g fill="#01b695" fill-opacity="1"><g transform="translate(155.350269, 7.223498)"><g><path d="M 4.265625 -4.265625 C 4.265625 -4.609375 4.097656 -4.78125 3.765625 -4.78125 L 2.34375 -4.78125 C 2.007812 -4.78125 1.84375 -4.609375 1.84375 -4.265625 L 1.84375 -1.59375 C 1.84375 -1.257812 2.007812 -1.09375 2.34375 -1.09375 L 3.765625 -1.09375 C 4.097656 -1.09375 4.265625 -1.257812 4.265625 -1.59375 Z M 5.78125 -1.59375 C 5.78125 -1.007812 5.644531 -0.582031 5.375 -0.3125 C 5.113281 -0.0507812 4.691406 0.078125 4.109375 0.078125 L 2.015625 0.078125 C 1.421875 0.078125 0.988281 -0.0507812 0.71875 -0.3125 C 0.457031 -0.582031 0.328125 -1.007812 0.328125 -1.59375 L 0.328125 -4.265625 C 0.328125 -4.859375 0.457031 -5.285156 0.71875 -5.546875 C 0.988281 -5.816406 1.421875 -5.953125 2.015625 -5.953125 L 4.109375 -5.953125 C 4.691406 -5.953125 5.113281 -5.816406 5.375 -5.546875 C 5.644531 -5.285156 5.78125 -4.859375 5.78125 -4.265625 Z M 5.78125 -1.59375 "/></g></g></g><g fill="#01b695" fill-opacity="1"><g transform="translate(165.945432, 7.223498)"><g><path d="M 2.015625 -1.171875 L 5.0625 -1.171875 L 5.0625 0 L 0.5 0 L 0.5 -5.859375 L 2.015625 -5.859375 Z M 2.015625 -1.171875 "/></g></g></g><g fill="#01b695" fill-opacity="1"><g transform="translate(175.576636, 7.223498)"><g><path d="M 4.265625 -4.265625 C 4.265625 -4.609375 4.097656 -4.78125 3.765625 -4.78125 L 2.34375 -4.78125 C 2.007812 -4.78125 1.84375 -4.609375 1.84375 -4.265625 L 1.84375 -1.59375 C 1.84375 -1.257812 2.007812 -1.09375 2.34375 -1.09375 L 3.765625 -1.09375 C 4.097656 -1.09375 4.265625 -1.257812 4.265625 -1.59375 Z M 5.78125 -1.59375 C 5.78125 -1.007812 5.644531 -0.582031 5.375 -0.3125 C 5.113281 -0.0507812 4.691406 0.078125 4.109375 0.078125 L 2.015625 0.078125 C 1.421875 0.078125 0.988281 -0.0507812 0.71875 -0.3125 C 0.457031 -0.582031 0.328125 -1.007812 0.328125 -1.59375 L 0.328125 -4.265625 C 0.328125 -4.859375 0.457031 -5.285156 0.71875 -5.546875 C 0.988281 -5.816406 1.421875 -5.953125 2.015625 -5.953125 L 4.109375 -5.953125 C 4.691406 -5.953125 5.113281 -5.816406 5.375 -5.546875 C 5.644531 -5.285156 5.78125 -4.859375 5.78125 -4.265625 Z M 5.78125 -1.59375 "/></g></g></g><g fill="#01b695" fill-opacity="1"><g transform="translate(186.171809, 7.223498)"><g><path d="M 5.53125 -0.125 C 4.21875 0.0078125 3.015625 0.078125 1.921875 0.078125 C 1.378906 0.078125 0.976562 -0.046875 0.71875 -0.296875 C 0.457031 -0.554688 0.328125 -0.957031 0.328125 -1.5 L 0.328125 -4.1875 C 0.328125 -4.769531 0.457031 -5.191406 0.71875 -5.453125 C 0.988281 -5.722656 1.421875 -5.859375 2.015625 -5.859375 L 5.03125 -5.859375 L 5.03125 -4.6875 L 2.34375 -4.6875 C 2.007812 -4.6875 1.84375 -4.519531 1.84375 -4.1875 L 1.84375 -1.5 C 1.84375 -1.375 1.878906 -1.273438 1.953125 -1.203125 C 2.023438 -1.128906 2.128906 -1.09375 2.265625 -1.09375 C 2.898438 -1.09375 3.484375 -1.101562 4.015625 -1.125 L 4.015625 -2.34375 L 2.9375 -2.34375 L 2.9375 -3.34375 L 5.53125 -3.34375 Z M 5.53125 -0.125 "/></g></g></g><g fill="#01b695" fill-opacity="1"><g transform="translate(196.515505, 7.223498)"><g><path d="M -0.171875 -5.859375 L 1.421875 -5.859375 L 2.8125 -3.015625 L 4.1875 -5.859375 L 5.78125 -5.859375 L 3.5625 -1.546875 L 3.5625 0 L 2.046875 0 L 2.046875 -1.546875 Z M -0.171875 -5.859375 "/></g></g></g></g></g><g transform="matrix(1, 0, 0, 1, 101, 18)"><g clip-path="url(#55318fdd0e)"><g fill="#0077b6" fill-opacity="1"><g transform="translate(0.181452, 25.995246)"><g><path d="M 18.09375 -10.6875 L 14.265625 -3.84375 L 10.421875 -3.84375 L 6.578125 -10.6875 L 6.578125 0 L 1.640625 0 L 1.640625 -19.203125 L 6.859375 -19.203125 L 12.34375 -9.046875 L 17.828125 -19.203125 L 23.03125 -19.203125 L 23.03125 0 L 18.09375 0 Z M 18.09375 -10.6875 "/></g></g></g><g fill="#0077b6" fill-opacity="1"><g transform="translate(26.331051, 25.995246)"><g><path d="M 7 -11.375 C 6.257812 -11.375 5.890625 -11.007812 5.890625 -10.28125 L 5.890625 -8.78125 L 10.5625 -8.78125 L 10.5625 -10.28125 C 10.5625 -11.007812 10.191406 -11.375 9.453125 -11.375 Z M 14.8125 -0.28125 C 11.28125 0.09375 8.078125 0.28125 5.203125 0.28125 C 3.960938 0.28125 2.96875 -0.09375 2.21875 -0.84375 C 1.46875 -1.59375 1.09375 -2.59375 1.09375 -3.84375 L 1.09375 -10.421875 C 1.09375 -11.796875 1.476562 -12.867188 2.25 -13.640625 C 3.03125 -14.421875 4.109375 -14.8125 5.484375 -14.8125 L 10.96875 -14.8125 C 12.34375 -14.8125 13.414062 -14.421875 14.1875 -13.640625 C 14.96875 -12.867188 15.359375 -11.796875 15.359375 -10.421875 L 15.359375 -5.34375 L 5.890625 -5.34375 L 5.890625 -4.25 C 5.890625 -3.976562 5.976562 -3.75 6.15625 -3.5625 C 6.34375 -3.382812 6.578125 -3.296875 6.859375 -3.296875 C 8.660156 -3.296875 11.3125 -3.429688 14.8125 -3.703125 Z M 14.8125 -0.28125 "/></g></g></g><g fill="#0077b6" fill-opacity="1"><g transform="translate(44.257793, 25.995246)"><g><path d="M 11.65625 0 L 11.375 -1.375 C 10.519531 -0.800781 9.640625 -0.378906 8.734375 -0.109375 C 7.828125 0.148438 7.0625 0.28125 6.4375 0.28125 L 5.203125 0.28125 C 3.960938 0.28125 2.96875 -0.09375 2.21875 -0.84375 C 1.46875 -1.59375 1.09375 -2.59375 1.09375 -3.84375 L 1.09375 -10.140625 C 1.09375 -11.515625 1.476562 -12.585938 2.25 -13.359375 C 3.03125 -14.140625 4.109375 -14.53125 5.484375 -14.53125 L 11.109375 -14.53125 L 11.109375 -19.203125 L 15.90625 -19.203125 L 15.90625 0 Z M 7.8125 -3.703125 C 8.78125 -3.703125 9.878906 -3.882812 11.109375 -4.25 L 11.109375 -10.828125 L 7 -10.828125 C 6.257812 -10.828125 5.890625 -10.460938 5.890625 -9.734375 L 5.890625 -4.65625 C 5.890625 -4.382812 5.976562 -4.15625 6.15625 -3.96875 C 6.34375 -3.789062 6.578125 -3.703125 6.859375 -3.703125 Z M 7.8125 -3.703125 "/></g></g></g><g fill="#0077b6" fill-opacity="1"><g transform="translate(63.00682, 25.995246)"><g><path d="M 7.40625 -13.984375 L 7.40625 0 L 2.609375 0 L 2.609375 -10.28125 L 0.546875 -10.28125 L 0.546875 -13.984375 Z M 2.609375 -19.46875 L 7.40625 -19.46875 L 7.40625 -15.625 L 2.609375 -15.625 Z M 2.609375 -19.46875 "/></g></g></g><g fill="#0077b6" fill-opacity="1"><g transform="translate(73.258885, 25.995246)"><g><path d="M 7.125 -3.5625 C 8.09375 -3.5625 9.191406 -3.742188 10.421875 -4.109375 L 10.421875 -5.765625 L 6.4375 -5.765625 C 6.164062 -5.765625 5.9375 -5.671875 5.75 -5.484375 C 5.570312 -5.296875 5.484375 -5.066406 5.484375 -4.796875 L 5.484375 -4.53125 C 5.484375 -4.25 5.570312 -4.015625 5.75 -3.828125 C 5.9375 -3.648438 6.164062 -3.5625 6.4375 -3.5625 Z M 2.0625 -14.265625 C 5.40625 -14.628906 8.421875 -14.8125 11.109375 -14.8125 C 12.347656 -14.8125 13.34375 -14.4375 14.09375 -13.6875 C 14.84375 -12.9375 15.21875 -11.9375 15.21875 -10.6875 L 15.21875 0 L 10.96875 0 L 10.6875 -1.375 C 9.832031 -0.800781 8.953125 -0.378906 8.046875 -0.109375 C 7.140625 0.148438 6.378906 0.28125 5.765625 0.28125 L 4.796875 0.28125 C 3.554688 0.28125 2.5625 -0.09375 1.8125 -0.84375 C 1.0625 -1.59375 0.6875 -2.59375 0.6875 -3.84375 L 0.6875 -5.078125 C 0.6875 -6.316406 1.0625 -7.3125 1.8125 -8.0625 C 2.5625 -8.8125 3.554688 -9.1875 4.796875 -9.1875 L 10.421875 -9.1875 L 10.421875 -10.28125 C 10.421875 -10.550781 10.328125 -10.78125 10.140625 -10.96875 C 9.960938 -11.15625 9.734375 -11.25 9.453125 -11.25 C 8.265625 -11.25 6.953125 -11.191406 5.515625 -11.078125 C 4.085938 -10.960938 2.9375 -10.878906 2.0625 -10.828125 Z M 2.0625 -14.265625 "/></g></g></g><g fill="#0077b6" fill-opacity="1"><g transform="translate(91.048569, 25.995246)"><g><path d="M 0.828125 -7.671875 L 0.828125 -11.515625 L 12.0625 -11.515625 L 12.0625 -7.671875 Z M 0.828125 -7.671875 "/></g></g></g><g fill="#0077b6" fill-opacity="1"><g transform="translate(105.412063, 25.995246)"><g><path d="M 16.453125 -0.28125 C 12.378906 0.09375 9 0.28125 6.3125 0.28125 C 4.519531 0.28125 3.203125 -0.140625 2.359375 -0.984375 C 1.515625 -1.828125 1.09375 -3.144531 1.09375 -4.9375 L 1.09375 -13.71875 C 1.09375 -15.632812 1.523438 -17.023438 2.390625 -17.890625 C 3.265625 -18.765625 4.660156 -19.203125 6.578125 -19.203125 L 16.453125 -19.203125 L 16.453125 -15.359375 L 7.671875 -15.359375 C 6.578125 -15.359375 6.03125 -14.8125 6.03125 -13.71875 L 6.03125 -4.9375 C 6.03125 -4.519531 6.148438 -4.1875 6.390625 -3.9375 C 6.640625 -3.6875 6.957031 -3.5625 7.34375 -3.5625 C 7.726562 -3.5625 8.148438 -3.566406 8.609375 -3.578125 C 9.066406 -3.585938 9.539062 -3.597656 10.03125 -3.609375 C 10.53125 -3.628906 11.03125 -3.648438 11.53125 -3.671875 C 12.03125 -3.691406 12.675781 -3.726562 13.46875 -3.78125 C 14.269531 -3.832031 15.265625 -3.894531 16.453125 -3.96875 Z M 16.453125 -0.28125 "/></g></g></g><g fill="#0077b6" fill-opacity="1"><g transform="translate(123.886988, 25.995246)"><g><path d="M 16.171875 -4.109375 C 16.171875 -2.742188 15.78125 -1.671875 15 -0.890625 C 14.226562 -0.109375 13.160156 0.28125 11.796875 0.28125 L 5.484375 0.28125 C 4.109375 0.28125 3.03125 -0.109375 2.25 -0.890625 C 1.476562 -1.671875 1.09375 -2.742188 1.09375 -4.109375 L 1.09375 -10.421875 C 1.09375 -11.796875 1.476562 -12.867188 2.25 -13.640625 C 3.03125 -14.421875 4.109375 -14.8125 5.484375 -14.8125 L 11.796875 -14.8125 C 13.160156 -14.8125 14.226562 -14.421875 15 -13.640625 C 15.78125 -12.867188 16.171875 -11.796875 16.171875 -10.421875 Z M 11.375 -10.015625 C 11.375 -10.742188 11.007812 -11.109375 10.28125 -11.109375 L 7 -11.109375 C 6.257812 -11.109375 5.890625 -10.742188 5.890625 -10.015625 L 5.890625 -4.53125 C 5.890625 -3.789062 6.257812 -3.421875 7 -3.421875 L 10.28125 -3.421875 C 11.007812 -3.421875 11.375 -3.789062 11.375 -4.53125 Z M 11.375 -10.015625 "/></g></g></g><g fill="#0077b6" fill-opacity="1"><g transform="translate(142.636015, 25.995246)"><g><path d="M 9.453125 -10.828125 C 8.484375 -10.828125 7.390625 -10.644531 6.171875 -10.28125 L 6.171875 0 L 1.375 0 L 1.375 -14.53125 L 5.625 -14.53125 L 5.890625 -13.15625 C 6.753906 -13.726562 7.640625 -14.144531 8.546875 -14.40625 C 9.453125 -14.675781 10.210938 -14.8125 10.828125 -14.8125 L 12.0625 -14.8125 C 13.3125 -14.8125 14.304688 -14.4375 15.046875 -13.6875 C 15.796875 -12.9375 16.171875 -11.9375 16.171875 -10.6875 L 16.171875 0 L 11.375 0 L 11.375 -9.875 C 11.375 -10.144531 11.28125 -10.367188 11.09375 -10.546875 C 10.914062 -10.734375 10.691406 -10.828125 10.421875 -10.828125 Z M 9.453125 -10.828125 "/></g></g></g><g fill="#0077b6" fill-opacity="1"><g transform="translate(161.385042, 25.995246)"><g><path d="M 13.15625 -15.5 C 12.632812 -15.53125 11.929688 -15.582031 11.046875 -15.65625 C 10.171875 -15.726562 9.410156 -15.765625 8.765625 -15.765625 C 8.128906 -15.765625 7.71875 -15.671875 7.53125 -15.484375 C 7.351562 -15.304688 7.265625 -15.082031 7.265625 -14.8125 L 7.265625 -13.4375 L 11.796875 -13.4375 L 11.796875 -9.734375 L 7.265625 -9.734375 L 7.265625 0 L 2.46875 0 L 2.46875 -9.734375 L 0.546875 -9.734375 L 0.546875 -13.4375 L 2.46875 -13.4375 L 2.46875 -15.359375 C 2.46875 -16.597656 2.84375 -17.59375 3.59375 -18.34375 C 4.34375 -19.09375 5.335938 -19.46875 6.578125 -19.46875 C 7.691406 -19.46875 8.867188 -19.429688 10.109375 -19.359375 C 11.359375 -19.285156 12.375 -19.234375 13.15625 -19.203125 Z M 13.15625 -15.5 "/></g></g></g><g fill="#0077b6" fill-opacity="1"><g transform="translate(175.200342, 25.995246)"><g><path d="M 7.40625 -13.984375 L 7.40625 0 L 2.609375 0 L 2.609375 -10.28125 L 0.546875 -10.28125 L 0.546875 -13.984375 Z M 2.609375 -19.46875 L 7.40625 -19.46875 L 7.40625 -15.625 L 2.609375 -15.625 Z M 2.609375 -19.46875 "/></g></g></g><g fill="#0077b6" fill-opacity="1"><g transform="translate(185.452408, 25.995246)"><g><path d="M 11.65625 0 L 11.375 -1.375 C 10.519531 -0.800781 9.640625 -0.378906 8.734375 -0.109375 C 7.828125 0.148438 7.0625 0.28125 6.4375 0.28125 L 5.203125 0.28125 C 3.960938 0.28125 2.96875 -0.09375 2.21875 -0.84375 C 1.46875 -1.59375 1.09375 -2.59375 1.09375 -3.84375 L 1.09375 -10.140625 C 1.09375 -11.515625 1.476562 -12.585938 2.25 -13.359375 C 3.03125 -14.140625 4.109375 -14.53125 5.484375 -14.53125 L 11.109375 -14.53125 L 11.109375 -19.203125 L 15.90625 -19.203125 L 15.90625 0 Z M 7.8125 -3.703125 C 8.78125 -3.703125 9.878906 -3.882812 11.109375 -4.25 L 11.109375 -10.828125 L 7 -10.828125 C 6.257812 -10.828125 5.890625 -10.460938 5.890625 -9.734375 L 5.890625 -4.65625 C 5.890625 -4.382812 5.976562 -4.15625 6.15625 -3.96875 C 6.34375 -3.789062 6.578125 -3.703125 6.859375 -3.703125 Z M 7.8125 -3.703125 "/></g></g></g><g fill="#0077b6" fill-opacity="1"><g transform="translate(204.201435, 25.995246)"><g><path d="M 7 -11.375 C 6.257812 -11.375 5.890625 -11.007812 5.890625 -10.28125 L 5.890625 -8.78125 L 10.5625 -8.78125 L 10.5625 -10.28125 C 10.5625 -11.007812 10.191406 -11.375 9.453125 -11.375 Z M 14.8125 -0.28125 C 11.28125 0.09375 8.078125 0.28125 5.203125 0.28125 C 3.960938 0.28125 2.96875 -0.09375 2.21875 -0.84375 C 1.46875 -1.59375 1.09375 -2.59375 1.09375 -3.84375 L 1.09375 -10.421875 C 1.09375 -11.796875 1.476562 -12.867188 2.25 -13.640625 C 3.03125 -14.421875 4.109375 -14.8125 5.484375 -14.8125 L 10.96875 -14.8125 C 12.34375 -14.8125 13.414062 -14.421875 14.1875 -13.640625 C 14.96875 -12.867188 15.359375 -11.796875 15.359375 -10.421875 L 15.359375 -5.34375 L 5.890625 -5.34375 L 5.890625 -4.25 C 5.890625 -3.976562 5.976562 -3.75 6.15625 -3.5625 C 6.34375 -3.382812 6.578125 -3.296875 6.859375 -3.296875 C 8.660156 -3.296875 11.3125 -3.429688 14.8125 -3.703125 Z M 14.8125 -0.28125 "/></g></g></g><g fill="#0077b6" fill-opacity="1"><g transform="translate(222.128176, 25.995246)"><g><path d="M 9.453125 -10.828125 C 8.484375 -10.828125 7.390625 -10.644531 6.171875 -10.28125 L 6.171875 0 L 1.375 0 L 1.375 -14.53125 L 5.625 -14.53125 L 5.890625 -13.15625 C 6.753906 -13.726562 7.640625 -14.144531 8.546875 -14.40625 C 9.453125 -14.675781 10.210938 -14.8125 10.828125 -14.8125 L 12.0625 -14.8125 C 13.3125 -14.8125 14.304688 -14.4375 15.046875 -13.6875 C 15.796875 -12.9375 16.171875 -11.9375 16.171875 -10.6875 L 16.171875 0 L 11.375 0 L 11.375 -9.875 C 11.375 -10.144531 11.28125 -10.367188 11.09375 -10.546875 C 10.914062 -10.734375 10.691406 -10.828125 10.421875 -10.828125 Z M 9.453125 -10.828125 "/></g></g></g><g fill="#0077b6" fill-opacity="1"><g transform="translate(240.877215, 25.995246)"><g><path d="M 14.265625 -0.28125 C 10.835938 0.09375 7.816406 0.28125 5.203125 0.28125 C 3.960938 0.28125 2.96875 -0.09375 2.21875 -0.84375 C 1.46875 -1.59375 1.09375 -2.59375 1.09375 -3.84375 L 1.09375 -10.140625 C 1.09375 -11.515625 1.476562 -12.585938 2.25 -13.359375 C 3.03125 -14.140625 4.109375 -14.53125 5.484375 -14.53125 L 14.265625 -14.53125 L 14.265625 -10.828125 L 7 -10.828125 C 6.257812 -10.828125 5.890625 -10.460938 5.890625 -9.734375 L 5.890625 -4.390625 C 5.890625 -4.109375 5.976562 -3.875 6.15625 -3.6875 C 6.34375 -3.507812 6.578125 -3.421875 6.859375 -3.421875 C 8.503906 -3.421875 10.972656 -3.5625 14.265625 -3.84375 Z M 14.265625 -0.28125 "/></g></g></g><g fill="#0077b6" fill-opacity="1"><g transform="translate(257.433477, 25.995246)"><g><path d="M 7 -11.375 C 6.257812 -11.375 5.890625 -11.007812 5.890625 -10.28125 L 5.890625 -8.78125 L 10.5625 -8.78125 L 10.5625 -10.28125 C 10.5625 -11.007812 10.191406 -11.375 9.453125 -11.375 Z M 14.8125 -0.28125 C 11.28125 0.09375 8.078125 0.28125 5.203125 0.28125 C 3.960938 0.28125 2.96875 -0.09375 2.21875 -0.84375 C 1.46875 -1.59375 1.09375 -2.59375 1.09375 -3.84375 L 1.09375 -10.421875 C 1.09375 -11.796875 1.476562 -12.867188 2.25 -13.640625 C 3.03125 -14.421875 4.109375 -14.8125 5.484375 -14.8125 L 10.96875 -14.8125 C 12.34375 -14.8125 13.414062 -14.421875 14.1875 -13.640625 C 14.96875 -12.867188 15.359375 -11.796875 15.359375 -10.421875 L 15.359375 -5.34375 L 5.890625 -5.34375 L 5.890625 -4.25 C 5.890625 -3.976562 5.976562 -3.75 6.15625 -3.5625 C 6.34375 -3.382812 6.578125 -3.296875 6.859375 -3.296875 C 8.660156 -3.296875 11.3125 -3.429688 14.8125 -3.703125 Z M 14.8125 -0.28125 "/></g></g></g></g></g><g clip-path="url(#40f0086827)"><path fill="#0077b6" d="M 18.21875 54.808594 L 9.148438 39.042969 L 0 54.808594 L 9.066406 70.570312 Z M 45.824219 39.042969 L 36.753906 54.808594 L 18.460938 54.808594 L 27.605469 39.042969 L 36.753906 23.28125 L 45.824219 39.042969 L 54.972656 23.28125 L 45.824219 7.519531 L 27.367188 7.519531 L 18.378906 23.125 L 18.460938 23.28125 L 18.296875 23.28125 L 9.148438 39.042969 L 18.296875 54.808594 L 18.460938 54.808594 L 18.378906 54.964844 L 27.367188 70.570312 L 45.824219 70.570312 L 54.972656 54.808594 Z M 45.824219 39.042969 " fill-opacity="1" fill-rule="evenodd"/></g><g clip-path="url(#38235b049a)"><path fill="#0077b6" d="M 54.488281 54.808594 L 45.417969 39.042969 L 36.269531 54.808594 L 45.339844 70.570312 Z M 82.09375 39.042969 L 73.023438 54.808594 L 54.730469 54.808594 L 63.878906 39.042969 L 73.023438 23.28125 L 82.09375 39.042969 L 91.242188 23.28125 L 82.09375 7.519531 L 63.636719 7.519531 L 54.648438 23.125 L 54.730469 23.28125 L 54.566406 23.28125 L 45.417969 39.042969 L 54.566406 54.808594 L 54.730469 54.808594 L 54.648438 54.964844 L 63.636719 70.570312 L 82.09375 70.570312 L 91.242188 54.808594 Z M 82.09375 39.042969 " fill-opacity="1" fill-rule="evenodd"/></g></svg>